<?xml version="1.0" encoding="UTF-8"?>
<svg  viewBox="0 0 1933 155" version="1.1" xmlns="http://www.w3.org/2000/svg" xmlns:xlink="http://www.w3.org/1999/xlink">
    <title>Untitled</title>
        <g id="Group">
            <g id="Vector1" transform="translate(0.000000, 104.000000)">
                <polygon id="Path" points="62.3217263 40.2253994 0 19.3943319 0 51 1933 51 1933 44.5351997 1870.68127 44.5351997 1808.36254 36.6338326 1746.03682 12.2112982 1682.67661 12.2112982 1621.39437 33.0422658 1559.07264 40.2253994 1497.79039 26.5774655 1434.43019 40.2253994 1371.06998 33.0422658 1309.78773 40.2253994 1247.46601 40.2253994 1184.1058 26.5774655 1122.82356 40.2253994 1059.46335 33.0422658 998.181102 19.3943319 933.781419 19.3943319 873.537649 26.5774655 811.216523 40.2253994 747.856468 40.2253994 685.534991 33.0422658 624.252743 19.3943319 561.931017 26.5774655 499.609291 33.0422658 437.288564 26.5774655 373.928359 33.0422658 312.645111 0 250.324385 5.02817456 188.002658 10.7746315 124.642453 10.7746315"></polygon>
            </g>
            <g id="Vector2" transform="translate(0.000000, 3.000000)" opacity="0.6">
                <polygon id="Path" points="62.353 105.029257 0 95.677157 0 150.350257 1932.931 150.350257 1932.931 53.233857 1869.541 58.988957 1808.231 66.902057 1746.913 53.233857 1682.482 73.376457 1621.169 103.590257 1558.816 112.942257 1496.464 118.697257 1434.111 -1.33226763e-15 1371.758 10.790657 1308.366 83.447757 1247.053 95.677157 1184.7 99.993257 1121.308 25.897557 1058.956 45.320757 997.642 51.075757 935.29 83.447757 871.898 95.677157 809.5452 105.029257 748.23181 112.942257 685.8792 119.416257 623.526 95.677157 560.135 83.447757 498.821 83.447757 436.469 57.550157 374.116 74.095857 312.802 83.447757 249.411 15.826257 187.058 41.723857 123.666 89.202757"></polygon>
            </g>
            <g id="Vector3" opacity="0.4">
                <polygon id="Path" points="62.355 0 0 16.8303 0 155.002 1933 155.002 1933 5.70058 1870.65 19.8163 1808.29 47.7763 1744.9 39.6326 1683.58 26.0598 1621.226 31.7604 1558.871 45.3332 1496.516 17.3732 1434.161 3.80039 1372.846 7.87224 1309.452 39.6326 1248.136 43.433 1183.703 31.7604 1121.348 4.3433 1057.954 9.77243 998.717 15.2016 935.323 23.0738 872.968 51.3053 811.652 59.449 748.258 4.3433 684.8641 29.5887 624.5876 5.97204 561.1937 31.7604 498.839 19.8163 436.484 33.9321 373.09 45.3332 311.774 1.35728 249.419 11.4012 187.065 0 124.71 5.97204"></polygon>
            </g>
        </g>
</svg>