<svg viewBox="0 0 398 152" fill="none" xmlns="http://www.w3.org/2000/svg">
<path opacity="0.6" d="M-684.608 105.691L-746.961 96.3389V151.012H1185.97V53.8956L1122.58 59.6507L1061.27 67.5638L999.952 53.8956L935.521 74.0382L874.208 104.252L811.855 113.604L749.503 119.359L687.15 0.661743L624.797 11.4524L561.405 84.1095L500.092 96.3389L437.739 100.655L374.347 26.5593L311.995 45.9825L250.681 51.7375L188.329 84.1095L124.937 96.3389L62.5842 105.691L1.27081 113.604L-61.0818 120.078L-123.435 96.3389L-186.826 84.1095H-248.14L-310.492 58.2119L-372.845 74.7576L-434.159 84.1095L-497.55 16.488L-559.903 42.3856L-623.295 89.8645L-684.608 105.691Z"/>
</svg>
