<svg viewBox="0 0 398 53" fill="none" xmlns="http://www.w3.org/2000/svg">
<path d="M-685.647 41.2208L-748 20.3588V52.0114H1185.97V45.537H1123.62L1061.27 37.6239L998.913 13.1651H935.521L874.208 34.027L811.855 41.2208L750.542 27.5526L687.15 41.2208L623.758 34.027L562.445 41.2208H500.092L436.7 27.5526L375.387 41.2208L311.995 34.027L250.682 20.3588H186.25L125.976 27.5526L63.6236 41.2208H0.23175L-62.121 34.027L-123.434 20.3588L-185.787 27.5526L-248.14 34.027L-310.492 27.5526L-373.884 34.027L-435.198 0.935669L-497.55 5.97131L-559.903 11.7263H-623.295L-685.647 41.2208Z"/>
</svg>
