<svg viewBox="0 0 398 156" fill="none" xmlns="http://www.w3.org/2000/svg">
<path opacity="0.4" d="M-581.645 0L-644 16.8303V155.002H1289V5.70058L1226.65 19.8163L1164.29 47.7763L1100.9 39.6326L1039.58 26.0598L977.226 31.7604L914.871 45.3332L852.516 17.3732L790.161 3.80039L728.846 7.87224L665.452 39.6326L604.136 43.433L539.703 31.7604L477.348 4.3433L413.954 9.77243L354.717 15.2016L291.323 23.0738L228.968 51.3053L167.652 59.449L104.258 4.3433L40.8641 29.5887L-19.4124 5.97204L-82.8063 31.7604L-145.161 19.8163L-207.516 33.9321L-270.91 45.3332L-332.226 1.35728L-394.581 11.4012L-456.935 0L-519.29 5.97204L-581.645 0Z"/>
</svg>
