<svg width="60" height="18" viewBox="0 0 60 18" fill="none" xmlns="http://www.w3.org/2000/svg">
<path d="M10.7059 16.1357C10.7059 16.7143 8.88237 17.8071 6.52943 17.8071C2.17649 17.8071 0.0588379 14.9143 0.0588379 9C0.0588379 3.21429 2.35296 0 6.52943 0C7.35296 0 8.35296 0.257143 9.29413 0.771429C9.94119 1.09286 10.7059 1.60714 10.7059 1.92857C10.7059 2.05714 10.7059 2.18571 10.5294 2.37857L9.58825 3.72857C9.52943 3.85714 9.35296 3.98571 9.23531 3.98571C9.05884 3.98571 8.88237 3.85714 8.58825 3.6C8.11766 3.27857 7.52943 2.82857 6.7059 2.82857C4.58825 2.82857 3.7059 4.37143 3.7059 8.35714C3.7059 10.6714 3.88237 12.2143 4.29413 13.1786C4.76472 14.3357 5.52943 14.9143 6.7059 14.9143C7.52943 14.9143 8.23531 14.5929 8.7059 14.3357C9.00001 14.1429 9.29413 14.0143 9.4706 14.0143C9.64707 14.0143 9.76472 14.1429 9.82354 14.3357L10.5883 15.75C10.6471 15.8786 10.7059 16.0071 10.7059 16.1357Z" fill="#FF6400"/>
<path d="M16.1177 3.27854V7.13568H20.2353C20.4706 7.13568 20.6471 7.13568 20.7059 7.26425C20.8236 7.39282 20.8236 7.5214 20.8236 7.77854V9.38568C20.8236 9.89997 20.6471 10.0285 20.2353 10.0285H16.1177V14.6571H21.2941C21.7647 14.6571 21.8824 14.7857 21.8824 15.3V16.9071C21.8824 17.4214 21.7647 17.55 21.2941 17.55H13.1765C12.9412 17.55 12.7647 17.55 12.7059 17.4214C12.6471 17.2928 12.5883 17.1643 12.5883 16.9071L12.6471 1.15711C12.6471 0.642823 12.8236 0.514252 13.2353 0.514252H21.353C21.7647 0.514252 22.0588 0.578537 22.0588 0.899966C22.0588 1.02854 22.0588 1.09282 22 1.15711L21.4706 2.89282C21.353 3.34282 20.9412 3.34282 20.8236 3.34282L16.1177 3.27854Z" fill="#FF6400"/>
<path d="M35.4117 1.09287L35.3529 16.8429C35.3529 17.3572 35.2353 17.4857 34.7647 17.4857H33.1176C32.7647 17.4857 32.647 17.4214 32.4706 17.1L28 8.74287C27.3529 7.58573 27 6.8143 26.7647 5.97858C26.7647 6.55716 26.8235 7.32858 26.8235 8.03573V16.8429C26.8235 17.3572 26.647 17.4857 26.2353 17.4857H24.4706C24 17.4857 23.8823 17.3572 23.8823 16.8429L23.9411 1.09287C23.9411 0.578584 24.1176 0.514298 24.5294 0.514298H26.5882C27 0.514298 27.0588 0.578584 27.2353 0.900012L31.2941 8.48573C31.9411 9.70716 32.3529 10.8 32.5882 11.6357C32.5882 11.25 32.5882 10.8 32.5294 10.35C32.5294 9.77144 32.4706 9.19287 32.4706 8.87144V1.09287C32.4706 0.578584 32.647 0.514298 33.0588 0.514298H34.8823C35.2353 0.450012 35.4117 0.578584 35.4117 1.09287Z" fill="#FF6400"/>
<path d="M41.0588 3.34282V7.19997H45.1765C45.4118 7.19997 45.5882 7.19997 45.6471 7.32854C45.7647 7.45711 45.7647 7.58568 45.7647 7.84282V9.44997C45.7647 9.89997 45.6471 10.0928 45.1765 10.0928H41.0588V14.7214H46.2353C46.7059 14.7214 46.8235 14.85 46.8235 15.3643V16.9714C46.8235 17.4857 46.7059 17.55 46.2353 17.55H38.1177C37.6471 17.55 37.5294 17.4214 37.5294 16.9071L37.5882 1.15711C37.5882 0.642823 37.7647 0.514252 38.1765 0.514252H46.2941C46.7059 0.514252 47 0.514252 47 0.899966C47 1.02854 47 1.09282 46.9412 1.15711L46.4118 2.89282C46.2941 3.34282 45.9412 3.34282 45.7647 3.34282H41.0588Z" fill="#FF6400"/>
<path d="M58.2941 2.3786C57.2353 0.90003 55.7059 0.128601 53.7059 0.128601C49.7059 0.128601 47.4706 3.2786 47.4706 9.06432C47.4706 11.9572 48 14.2072 49.1176 15.75C50.1765 17.2286 51.7059 18 53.7059 18C57.7059 18 59.9412 14.85 59.9412 9.1286C59.8823 6.17146 59.3529 3.85717 58.2941 2.3786ZM53.7059 2.89289C54.2353 2.89289 54.6471 3.08574 55.0588 3.47146C55.8823 4.37146 56.2941 6.23574 56.2941 9.00003C56.2941 11.7643 55.8235 15.1072 53.7059 15.1072C51.5882 15.1072 51.1765 11.7643 51.1765 9.00003C51.1176 6.23574 51.6471 2.89289 53.7059 2.89289Z" fill="#FF6400"/>
</svg>
